# File created by Blade
# Date/Time:  Wed Jan 28 16:58:26 2015
#---------------------------------------------------------
:version 1.10
:name HOM
:units
  mass 1.0
  length 1.000000
  angle deg
:documentation
     Acclaim Skeleton File
:root
   axis xyz
   order TX TY TZ RX RY RZ
   position 0.000000 0.000000 0.000000
   orientation 0 0 0
:bonedata
   begin
      id 1
      name Spine_dum
      direction 0.000000 1.000000 0.000000
      length 9.621153
      axis 0.0 0.0 0.0 xyz
   end
   begin
      id 2
      name LeftUpLeg_dum
      direction 1.000000 0.000000 0.000000
      length 2.700595
      axis 0.0 0.0 0.0 xyz
   end
   begin
      id 3
      name RightUpLeg_dum
      direction -1.000000 0.000000 0.000000
      length 2.700595
      axis 0.0 0.0 0.0 xyz
   end
   begin
      id 4
      name Spine
      direction 0.000000 1.000000 0.000000
      length 0.000000
      axis 0.0 0.0 0.0 xyz
      dof rx ry rz
   end
   begin
      id 5
      name Spine_dum1
      direction 0.000000 1.000000 0.000000
      length 12.771951
      axis 0.0 0.0 0.0 xyz
   end
   begin
      id 6
      name Spine_dum2
      direction 0.000000 1.000000 0.000000
      length 7.400569
      axis 0.0 0.0 0.0 xyz
   end
   begin
      id 7
      name Spine_dum3
      direction 0.000000 1.000000 0.000000
      length 7.400569
      axis 0.0 0.0 0.0 xyz
   end
   begin
      id 8
      name Head
      direction 0.000000 1.000000 0.000000
      length 4.527550
      axis 0.0 0.0 0.0 xyz
      dof rx ry rz
   end
   begin
      id 9
      name LeftShoulder
      direction 1.000000 0.000000 0.000000
      length 8.349299
      axis 0.0 0.0 -90.0 xyz
      dof rx ry rz
   end
   begin
      id 10
      name LeftArm
      direction 1.000000 0.000000 0.000000
      length 11.334839
      axis 0.0 0.0 -90.0 xyz
      dof rx ry rz
   end
   begin
      id 11
      name LeftForeArm
      direction 1.000000 0.000000 0.000000
      length 9.694182
      axis 0.0 0.0 -90.0 xyz
      dof ry rz rx
   end
   begin
      id 12
      name LeftHand
      direction 0.000000 0.000000 0.000000
      length 0.000000
      axis 0.0 0.0 -90.0 xyz
      dof rx ry rz
   end
   begin
      id 13
      name LeftHand_dum1
      direction 0.000000 0.000000 0.000000
      length 0.000000
      axis 0.0 0.0 -90.0 xyz
   end
   begin
      id 14
      name LeftHand_dum2
      direction 1.000000 0.000000 0.000000
      length 3.937000
      axis 0.0 0.0 -90.0 xyz
   end
   begin
      id 15
      name LeftHandThumb1
      direction 0.000000 0.000000 1.000000
      length 3.937000
      axis 0.0 0.0 -90.0 xyz
      dof rx rz ry
   end
   begin
      id 16
      name RightShoulder
      direction -1.000000 0.000000 0.000000
      length 8.349299
      axis 0.0 0.0 90.0 xyz
      dof rx ry rz
   end
   begin
      id 17
      name RightArm
      direction -1.000000 0.000000 0.000000
      length 11.334839
      axis 0.0 0.0 90.0 xyz
      dof rx ry rz
   end
   begin
      id 18
      name RightForeArm
      direction -1.000000 0.000000 0.000000
      length 9.694182
      axis 0.0 0.0 90.0 xyz
      dof ry rz rx
   end
   begin
      id 19
      name RightHand
      direction 0.000000 0.000000 0.000000
      length 0.000000
      axis 0.0 0.0 90.0 xyz
      dof rx ry rz
   end
   begin
      id 20
      name RightHand_dum1
      direction 0.000000 0.000000 0.000000
      length 0.000000
      axis 0.0 0.0 90.0 xyz
   end
   begin
      id 21
      name RightHand_dum2
      direction -1.000000 0.000000 0.000000
      length 3.937000
      axis 0.0 0.0 90.0 xyz
   end
   begin
      id 22
      name RightHandThumb1
      direction 0.000000 0.000000 1.000000
      length 3.937000
      axis 0.0 0.0 90.0 xyz
      dof rx rz ry
   end
   begin
      id 23
      name LeftUpLeg
      direction 0.000000 -1.000000 0.000000
      length 16.757176
      axis 0.0 0.0 0.0 xyz
      dof rx ry rz
   end
   begin
      id 24
      name LeftLeg
      direction 0.000000 -1.000000 0.000000
      length 16.759153
      axis 0.0 0.0 0.0 xyz
      dof rx ry rz
   end
   begin
      id 25
      name LeftFoot
      direction 0.000000 -0.258819 0.965926
      length 5.841289
      axis 15.0 0.0 0.0 xyz
      dof rx ry rz
   end
   begin
      id 26
      name LeftToeBase
      direction 0.000000 0.000000 1.000000
      length 2.952750
      axis 0.0 0.0 0.0 xyz
      dof rx ry rz
   end
   begin
      id 27
      name RightUpLeg
      direction 0.000000 -1.000000 0.000000
      length 16.757176
      axis 0.0 0.0 0.0 xyz
      dof rx ry rz
   end
   begin
      id 28
      name RightLeg
      direction 0.000000 -1.000000 0.000000
      length 16.759153
      axis 0.0 0.0 0.0 xyz
      dof rx ry rz
   end
   begin
      id 29
      name RightFoot
      direction 0.000000 -0.258819 0.965926
      length 5.841289
      axis 15.0 0.0 0.0 xyz
      dof rx ry rz
   end
   begin
      id 30
      name RightToeBase
      direction 0.000000 0.000000 1.000000
      length 2.952750
      axis 0.0 0.0 0.0 xyz
      dof rx ry rz
   end
:hierarchy
   begin
      root Spine_dum LeftUpLeg_dum RightUpLeg_dum
      Spine_dum Spine
      LeftUpLeg_dum LeftUpLeg
      RightUpLeg_dum RightUpLeg
      Spine Spine_dum1 Spine_dum2 Spine_dum3
      Spine_dum1 Head
      Spine_dum2 LeftShoulder
      Spine_dum3 RightShoulder
      LeftShoulder LeftArm
      LeftArm LeftForeArm
      LeftForeArm LeftHand
      LeftHand LeftHand_dum1 LeftHand_dum2
      LeftHand_dum1 LeftHandThumb1
      RightShoulder RightArm
      RightArm RightForeArm
      RightForeArm RightHand
      RightHand RightHand_dum1 RightHand_dum2
      RightHand_dum1 RightHandThumb1
      LeftUpLeg LeftLeg
      LeftLeg LeftFoot
      LeftFoot LeftToeBase
      RightUpLeg RightLeg
      RightLeg RightFoot
      RightFoot RightToeBase
   end

# File created by Blade
# Date/Time:  Wed Jan 28 16:58:32 2015
# Frame Rate: 120.000 fps
#------------------------------------------------------
:FULLY-SPECIFIED
:DEGREES
3354
root 15.774932 37.377910 -15.181033 236.353728 27.622597 -132.698465
Spine 20.200512 -5.764814 9.873632
Head 14.704951 31.937351 40.489913
LeftShoulder -15.338705 5.817820 30.467487
LeftArm 33.397626 -56.509291 -53.723065
LeftForeArm -26.877401 -0.000000 120.873088
LeftHand -21.255043 -0.000000 23.084562
LeftHandThumb1 -26.253704 0.000000 33.147579
RightShoulder -34.033200 -17.986397 3.892755
RightArm 6.668837 -27.541676 68.839377
RightForeArm 13.446535 -0.000000 43.922379
RightHand -20.164118 -0.000000 23.456284
RightHandThumb1 -24.326973 -0.000000 -32.862282
LeftUpLeg -41.842362 36.404722 22.991251
LeftLeg 19.848833 -0.000000 -0.000000
LeftFoot -19.047873 20.848582 -17.004845
LeftToeBase -3.223026 -0.000000 0.000000
RightUpLeg 10.941549 8.073883 -14.811755
RightLeg 147.335931 -0.000000 -0.000000
RightFoot 19.782912 9.112051 16.334415
RightToeBase -7.748407 -0.000000 0.000000
3355
root 15.727678 37.355893 -15.177332 236.545547 27.741640 -133.061478
Spine 20.053696 -5.856314 9.789939
Head 14.499232 32.035705 40.234055
LeftShoulder -15.308853 5.803864 30.404512
LeftArm 33.629076 -56.531606 -53.974515
LeftForeArm -26.767952 -0.000000 120.763484
LeftHand -21.182605 -0.000000 23.130588
LeftHandThumb1 -26.253704 0.000000 33.147579
RightShoulder -33.938451 -17.775752 3.896600
RightArm 6.539351 -27.169496 68.978323
RightForeArm 13.052734 -0.000000 43.724061
RightHand -20.126547 -0.000000 23.630047
RightHandThumb1 -24.326973 -0.000000 -32.862282
LeftUpLeg -41.777637 34.687701 23.504545
LeftLeg 20.151771 -0.000000 -0.000000
LeftFoot -19.380762 20.047847 -17.421917
LeftToeBase -4.002808 -0.000000 0.000000
RightUpLeg 10.738724 8.237115 -14.636289
RightLeg 147.373750 -0.000000 -0.000000
RightFoot 19.620591 9.569821 16.344776
RightToeBase -8.289552 -0.000000 0.000000
3356
root 15.683390 37.334687 -15.177401 236.752018 27.868252 -133.283439
Spine 19.995980 -5.788293 9.843487
Head 14.216286 32.117639 39.834368
LeftShoulder -15.223608 5.781926 30.295557
LeftArm 33.884318 -56.578264 -54.266294
LeftForeArm -26.619525 0.000000 120.689097
LeftHand -21.196129 -0.000000 22.967537
LeftHandThumb1 -26.253704 0.000000 33.147579
RightShoulder -33.857663 -17.662537 3.858722
RightArm 6.535446 -26.792443 69.117457
RightForeArm 12.667739 -0.000000 43.453654
RightHand -20.100809 -0.000000 23.877554
RightHandThumb1 -24.326973 -0.000000 -32.862282
LeftUpLeg -41.588111 33.002713 24.203740
LeftLeg 20.464219 -0.000000 -0.000000
LeftFoot -19.562859 19.041352 -17.864551
LeftToeBase -4.679855 -0.000000 0.000000
RightUpLeg 10.529005 8.462617 -14.393247
RightLeg 147.395778 -0.000000 -0.000000
RightFoot 19.220231 9.893881 15.988101
RightToeBase -8.455852 -0.000000 0.000000
3357
root 15.641785 37.312839 -15.181777 237.021172 28.007683 -133.417940
Spine 19.903957 -5.636156 9.979391
Head 13.955776 32.149382 39.385543
LeftShoulder -15.123168 5.673756 30.139600
LeftArm 33.905727 -56.582113 -54.306446
LeftForeArm -26.539885 -0.000000 120.675275
LeftHand -21.138697 -0.000000 23.154521
LeftHandThumb1 -26.253704 0.000000 33.147579
RightShoulder -33.816244 -17.570649 3.791121
RightArm 6.565386 -26.574032 69.190137
RightForeArm 12.402389 -0.000000 43.204029
RightHand -20.032953 -0.000000 23.870658
RightHandThumb1 -24.326973 -0.000000 -32.862282
LeftUpLeg -41.421498 31.372156 24.937298
LeftLeg 20.775163 -0.000000 -0.000000
LeftFoot -19.549960 18.227262 -18.202157
LeftToeBase -4.800002 -0.000000 0.000000
RightUpLeg 10.267507 8.732089 -14.143834
RightLeg 147.388041 -0.000000 -0.000000
RightFoot 18.783677 10.049335 15.637815
RightToeBase -8.582120 -0.000000 0.000000
3358
root 15.599651 37.288713 -15.191242 237.355492 28.244397 -133.403527
Spine 19.828876 -5.294797 10.121859
Head 13.719723 32.187889 38.910020
LeftShoulder -15.012958 5.653789 30.023923
LeftArm 34.105489 -56.582668 -54.678473
LeftForeArm -26.236825 0.000000 120.706985
LeftHand -21.109984 0.000000 23.116380
LeftHandThumb1 -26.253704 0.000000 33.147579
RightShoulder -33.725128 -17.561834 3.712754
RightArm 6.597677 -26.461389 69.210553
RightForeArm 12.168608 -0.000000 43.049920
RightHand -20.092213 -0.000000 23.899612
RightHandThumb1 -24.326973 -0.000000 -32.862282
LeftUpLeg -41.215676 29.949893 25.665135
LeftLeg 21.108396 -0.000000 -0.000000
LeftFoot -19.381838 17.497962 -18.201445
LeftToeBase -4.537086 -0.000000 0.000000
RightUpLeg 9.953570 9.126296 -13.926088
RightLeg 147.383399 -0.000000 -0.000000
RightFoot 18.247494 9.991733 15.213911
RightToeBase -8.551072 -0.000000 0.000000
3359
root 15.558808 37.262484 -15.204085 237.683738 28.505421 -133.326878
Spine 19.819687 -4.960007 10.275805
Head 13.504249 32.205819 38.389001
LeftShoulder -14.970187 5.754829 29.860980
LeftArm 34.389169 -56.673464 -55.174424
LeftForeArm -26.006777 -0.000000 120.782012
LeftHand -21.049159 -0.000000 23.120894
LeftHandThumb1 -26.253704 0.000000 33.147579
RightShoulder -33.610855 -17.520944 3.579607
RightArm 6.640669 -26.532655 69.165760
RightForeArm 11.943774 -0.000000 42.928149
RightHand -20.027734 -0.000000 23.956345
RightHandThumb1 -24.326973 -0.000000 -32.862282
LeftUpLeg -41.038785 28.648897 26.341572
LeftLeg 21.453641 -0.000000 -0.000000
LeftFoot -19.128950 17.331332 -17.719157
LeftToeBase -3.962587 -0.000000 0.000000
RightUpLeg 9.705253 9.530794 -13.716860
RightLeg 147.375005 -0.000000 -0.000000
RightFoot 17.527882 9.725760 14.801775
RightToeBase -8.645270 -0.000000 0.000000
3360
root 15.521097 37.230362 -15.222363 238.014394 28.811519 -133.157193
Spine 19.884708 -4.558210 10.466858
Head 13.260626 32.292411 37.719557
LeftShoulder -14.941014 5.698606 29.750821
LeftArm 34.483790 -56.677654 -55.609222
LeftForeArm -25.798235 -0.000000 120.859609
LeftHand -20.982211 -0.000000 23.109958
LeftHandThumb1 -26.253704 0.000000 33.147579
RightShoulder -33.503290 -17.517549 3.398521
RightArm 6.731793 -26.855572 69.019856
RightForeArm 11.937121 -0.000000 42.870797
RightHand -19.891093 -0.000000 23.866629
RightHandThumb1 -24.326973 -0.000000 -32.862282
LeftUpLeg -40.880904 27.619342 26.922399
LeftLeg 21.806875 -0.000000 -0.000000
LeftFoot -18.714230 17.742554 -16.854645
LeftToeBase -2.974987 -0.000000 0.000000
RightUpLeg 9.494022 9.952733 -13.536594
RightLeg 147.380018 -0.000000 -0.000000
RightFoot 16.488730 9.249511 13.933434
RightToeBase -8.570377 -0.000000 0.000000
3361
root 15.491119 37.196748 -15.241061 238.368169 29.148915 -132.945800
Spine 19.905940 -4.084037 10.626201
Head 13.096112 32.310758 37.101858
LeftShoulder -14.876010 5.850916 29.651133
LeftArm 34.815301 -56.787191 -56.299055
LeftForeArm -25.570225 -0.000000 120.950847
LeftHand -20.938033 -0.000000 23.249512
LeftHandThumb1 -26.253704 0.000000 33.147579
RightShoulder -33.395979 -17.514096 3.234771
RightArm 6.770884 -27.226329 68.869619
RightForeArm 12.041320 -0.000000 42.788127
RightHand -19.892780 -0.000000 24.016235
RightHandThumb1 -24.326973 -0.000000 -32.862282
LeftUpLeg -40.839071 26.921755 27.329434
LeftLeg 22.160964 -0.000000 -0.000000
LeftFoot -18.326318 18.688849 -16.143983
LeftToeBase -0.658612 -0.000000 0.000000
RightUpLeg 9.321286 10.398803 -13.372661
RightLeg 147.349224 -0.000000 -0.000000
RightFoot 15.347163 8.700799 13.054733
RightToeBase -8.018664 -0.000000 0.000000
3362
root 15.467932 37.155565 -15.267758 238.693216 29.508893 -132.690517
Spine 19.969921 -3.594409 10.814889
Head 12.971583 32.323886 36.415790
LeftShoulder -14.838988 5.901665 29.487494
LeftArm 34.907839 -56.860495 -56.696645
LeftForeArm -25.399791 -0.000000 121.035059
LeftHand -20.929527 -0.000000 23.336264
LeftHandThumb1 -26.253704 0.000000 33.147579
RightShoulder -33.343369 -17.520543 3.033239
RightArm 6.856885 -27.741684 68.684144
RightForeArm 12.190665 -0.000000 42.661842
RightHand -19.884759 -0.000000 23.997363
RightHandThumb1 -24.326973 -0.000000 -32.862282
LeftUpLeg -40.805222 26.503541 27.621787
LeftLeg 22.512141 -0.000000 -0.000000
LeftFoot -18.007586 19.788350 -15.429844
LeftToeBase 2.657680 -0.000000 -0.000000
RightUpLeg 9.281434 10.864860 -13.188229
RightLeg 147.287591 -0.000000 -0.000000
RightFoot 14.161862 8.075212 12.465290
RightToeBase -7.683452 -0.000000 0.000000
3363
root 15.458101 37.111064 -15.303239 238.885143 29.834332 -132.466042
Spine 20.156418 -3.245380 11.015235
Head 12.892727 32.340678 35.712121
LeftShoulder -14.873108 5.972484 29.306924
LeftArm 35.074338 -56.947005 -57.230366
LeftForeArm -25.235103 0.000000 121.093572
LeftHand -20.925710 -0.000000 23.392924
LeftHandThumb1 -26.253704 0.000000 33.147579
RightShoulder -33.197157 -17.574047 2.787091
RightArm 6.976193 -28.115992 68.593129
RightForeArm 12.373031 -0.000000 42.441093
RightHand -19.916284 -0.000000 24.093245
RightHandThumb1 -24.326973 -0.000000 -32.862282
LeftUpLeg -40.863686 26.478735 27.668128
LeftLeg 22.932153 -0.000000 -0.000000
LeftFoot -17.843747 20.433095 -14.958324
LeftToeBase 7.244182 -0.000000 -0.000000
RightUpLeg 9.414627 11.181550 -12.987451
RightLeg 147.165408 -0.000000 -0.000000
RightFoot 12.831757 7.204804 11.870235
RightToeBase -7.124608 -0.000000 0.000000
3364
root 15.459496 37.066234 -15.338106 239.026612 30.143728 -132.289162
Spine 20.317713 -2.905954 11.169224
Head 12.922063 32.402236 35.094628
LeftShoulder -14.872298 6.007130 29.131464
LeftArm 35.043062 -57.020900 -57.460986
LeftForeArm -25.097633 -0.000000 121.123304
LeftHand -20.902917 -0.000000 23.611903
LeftHandThumb1 -26.253704 0.000000 33.147579
RightShoulder -33.097462 -17.594073 2.595971
RightArm 7.011479 -28.405970 68.567298
RightForeArm 12.441237 -0.000000 42.232168
RightHand -19.957349 -0.000000 24.373935
RightHandThumb1 -24.326973 -0.000000 -32.862282
LeftUpLeg -41.039745 26.740667 27.515995
LeftLeg 23.491959 -0.000000 -0.000000
LeftFoot -17.594896 20.478456 -14.210886
LeftToeBase 10.925170 -0.000000 -0.000000
RightUpLeg 9.597014 11.494077 -12.752035
RightLeg 147.006283 -0.000000 -0.000000
RightFoot 11.758214 6.495377 11.182422
RightToeBase -6.751650 -0.000000 0.000000
